<svg xmlns="http://www.w3.org/2000/svg" x="0px" y="0px" width="100" height="100" viewBox="0 0 100 100">
<path fill="#565fa1" d="M51,60l-21.112,5.735c-0.775,0.211-1.485,0.635-2.013,1.24C21.974,73.742,20.598,79.976,19,86h32V60 z"></path><path fill="#1f212b" d="M51,87H19c-0.311,0-0.604-0.144-0.792-0.39c-0.189-0.246-0.254-0.566-0.174-0.866l0.284-1.076 c1.524-5.806,3.101-11.809,8.804-18.35c0.648-0.743,1.514-1.278,2.504-1.548l21.113-5.734c0.301-0.081,0.622-0.019,0.87,0.17 C51.854,59.395,52,59.688,52,60v26C52,86.552,51.553,87,51,87z M20.297,85H50V61.308l-19.85,5.392 c-0.607,0.166-1.134,0.488-1.521,0.933C23.289,73.755,21.75,79.472,20.297,85z"></path><path fill="#565fa1" d="M51,60l21.112,5.735c0.775,0.211,1.485,0.635,2.013,1.24C80.026,73.742,81.402,79.976,83,86H51V60z"></path><path fill="#1f212b" d="M83,87H51c-0.552,0-1-0.448-1-1V60c0-0.312,0.145-0.605,0.393-0.794 c0.248-0.189,0.57-0.252,0.869-0.17l21.112,5.734c0.991,0.27,1.857,0.805,2.505,1.548c5.705,6.542,7.281,12.546,8.805,18.353 l0.283,1.073c0.079,0.3,0.015,0.62-0.174,0.866C83.604,86.856,83.311,87,83,87z M52,85h29.703 c-1.452-5.528-2.992-11.245-8.332-17.368c-0.387-0.445-0.913-0.767-1.521-0.933L52,61.308V85z"></path><path fill="#1f212b" d="M37.373,81.178c-0.176,0-0.346-0.093-0.438-0.257l-2.19-3.947c-0.134-0.242-0.047-0.546,0.194-0.68 c0.242-0.135,0.545-0.047,0.68,0.194l2.19,3.947c0.134,0.242,0.047,0.546-0.194,0.68C37.538,81.158,37.455,81.178,37.373,81.178z"></path><path fill="#1f212b" d="M63.952,80.594c-0.083,0-0.166-0.02-0.242-0.063c-0.242-0.134-0.329-0.438-0.195-0.68l3.866-6.966 l-4.677-2.408c-0.174-0.089-0.279-0.271-0.271-0.465c0.009-0.194,0.129-0.367,0.309-0.441l4.018-1.662l-1.688-3.372l-4.204-1.258 l-10.314,1.106c-0.035,0.004-0.071,0.004-0.106,0L40.133,63.28l-4.204,1.258l-1.687,3.372l4.017,1.662 c0.18,0.074,0.301,0.247,0.309,0.441c0.008,0.195-0.098,0.376-0.271,0.465l-4.677,2.408l0.809,1.457 c0.134,0.242,0.047,0.546-0.194,0.68c-0.241,0.136-0.546,0.047-0.68-0.194l-1.059-1.908c-0.066-0.118-0.081-0.258-0.042-0.388 s0.129-0.238,0.25-0.299l4.176-2.15l-3.516-1.454c-0.128-0.053-0.229-0.157-0.277-0.287c-0.049-0.13-0.041-0.274,0.021-0.398 l2.024-4.045c0.062-0.124,0.172-0.216,0.304-0.255l4.508-1.349c0.064-0.02,0.132-0.024,0.197-0.018L50.5,63.386l10.36-1.111 c0.07-0.006,0.134-0.001,0.197,0.018l4.508,1.349c0.132,0.04,0.242,0.132,0.304,0.255l2.024,4.045 c0.062,0.124,0.069,0.269,0.021,0.398c-0.049,0.13-0.149,0.234-0.277,0.287l-3.517,1.454l4.176,2.15 c0.121,0.062,0.211,0.17,0.25,0.299s0.024,0.27-0.041,0.388l-4.116,7.417C64.298,80.501,64.128,80.594,63.952,80.594z"></path><path fill="#1f212b" d="M60.5,86.814h-20c-0.182,0-0.349-0.099-0.437-0.257l-1.976-3.56 c-0.134-0.242-0.047-0.546,0.194-0.68c0.242-0.136,0.546-0.047,0.68,0.194l1.833,3.303h19.412l2.104-3.792 c0.136-0.242,0.442-0.328,0.68-0.194c0.242,0.134,0.329,0.438,0.195,0.68l-2.247,4.049C60.849,86.715,60.682,86.814,60.5,86.814z"></path><polygon fill="#fff" points="60.5,61.5 40.5,61.5 44.5,85.5 56.5,85.5"></polygon><path fill="#1f212b" d="M56.5,86h-12c-0.245,0-0.453-0.177-0.493-0.418l-4-24c-0.024-0.145,0.017-0.293,0.112-0.405 C40.213,61.064,40.353,61,40.5,61h20c0.147,0,0.286,0.064,0.382,0.177c0.095,0.112,0.136,0.26,0.111,0.405l-4,24 C56.953,85.823,56.744,86,56.5,86z M44.923,85h11.153l3.834-23H41.09L44.923,85z"></path><polygon fill="#ceccbe" points="50.5,77.854 47.697,72.248 45.904,77.027 43.096,75.973 47.303,64.752 50.5,71.146 53.696,64.752 57.904,75.973 55.096,77.027 53.304,72.248"></polygon><path fill="#1f212b" d="M50.5,78.354L50.5,78.354c-0.189,0-0.362-0.107-0.447-0.276l-2.291-4.581l-1.39,3.706 c-0.047,0.124-0.141,0.225-0.261,0.279c-0.121,0.055-0.259,0.06-0.383,0.013l-2.809-1.054c-0.258-0.097-0.389-0.385-0.292-0.644 l4.208-11.221c0.07-0.186,0.244-0.313,0.442-0.324c0.198-0.011,0.385,0.098,0.474,0.276l2.75,5.499l2.749-5.499 c0.089-0.178,0.274-0.288,0.474-0.276c0.198,0.011,0.372,0.138,0.441,0.324l4.208,11.221c0.098,0.259-0.033,0.547-0.292,0.644 l-2.809,1.054c-0.124,0.045-0.263,0.042-0.383-0.013s-0.215-0.155-0.261-0.279l-1.39-3.706l-2.291,4.581 C50.862,78.247,50.689,78.354,50.5,78.354z M47.697,71.748c0.188,0,0.362,0.106,0.447,0.276l2.356,4.712l2.356-4.712 c0.089-0.178,0.283-0.287,0.474-0.276c0.198,0.011,0.372,0.138,0.441,0.324l1.617,4.311l1.872-0.702l-3.63-9.679l-2.684,5.368 c-0.17,0.339-0.725,0.339-0.895,0l-2.684-5.368l-3.629,9.679l1.873,0.703l1.617-4.312c0.07-0.186,0.244-0.313,0.442-0.324 C47.679,71.748,47.688,71.748,47.697,71.748z"></path><path fill="#565fa1" d="M65.941,18.436h-0.008C65.971,18.292,66,18.147,66,18c0-2.761-6.716-5-15-5s-15,2.239-15,5 c0,0.147,0.029,0.292,0.066,0.436h-0.008l0.018,0.071c0.001,0.002,0.001,0.005,0.002,0.007L39.047,32h23.906l2.968-13.486 c0.001-0.002,0.001-0.005,0.002-0.007L65.941,18.436z"></path><path fill="#1f212b" d="M62.953,33H39.047c-0.469,0-0.875-0.327-0.977-0.785L35.107,18.75 c-0.01-0.038-0.017-0.077-0.022-0.116C35.043,18.464,35,18.247,35,18c0-3.939,8.049-6,16-6s16,2.061,16,6 c0,0.211-0.032,0.403-0.065,0.554c-0.006,0.045-0.014,0.09-0.025,0.135l-0.011,0.039l0,0L63.93,32.215 C63.829,32.673,63.423,33,62.953,33z M39.851,31h22.299l2.79-12.677c0,0,0.001-0.001,0.001-0.001 c0.005-0.047,0.014-0.095,0.026-0.142C64.989,18.097,65,18.037,65,18c0-1.631-5.454-4-14-4c-8.546,0-14,2.369-14,4 c0,0.036,0.012,0.098,0.034,0.187c0.011,0.042,0.019,0.085,0.024,0.127c0,0.001,0,0.003,0,0.003L39.851,31z"></path><ellipse cx="51" cy="30.128" fill="#b3b2c3" rx="13.957" ry="4.652"></ellipse><path fill="#565fa1" d="M67.88,41.137c-11.145,1.169-22.391,1.141-33.732-0.023C30.637,40.753,28,38.021,28,34.81v-0.017 c0-3.875,3.795-6.88,8.006-6.273c10.067,1.452,20.059,1.49,29.971,0.048C70.194,27.954,74,30.956,74,34.837v0 C74,38.038,71.379,40.77,67.88,41.137z"></path><path fill="#1f212b" d="M51.274,42.996c-5.707,0-11.463-0.296-17.229-0.888C30.029,41.696,27,38.558,27,34.81 c0-2.071,0.894-3.977,2.518-5.383c1.794-1.555,4.21-2.248,6.63-1.897c10.004,1.443,19.99,1.458,29.686,0.048 c2.424-0.352,4.848,0.338,6.646,1.893c1.625,1.406,2.52,3.311,2.52,5.366c0,3.739-3.017,6.875-7.016,7.294l0,0 C62.489,42.708,56.905,42.996,51.274,42.996z M67.88,41.137h0.01H67.88z M34.918,29.441c-1.515,0-2.967,0.524-4.09,1.498 C29.649,31.959,29,33.328,29,34.793c0,2.736,2.257,5.019,5.25,5.326c11.319,1.161,22.599,1.17,33.526,0.023l0,0 C70.754,39.83,73,37.549,73,34.837c0-1.465-0.649-2.833-1.828-3.853c-1.359-1.176-3.196-1.697-5.051-1.426 c-9.883,1.438-20.065,1.422-30.258-0.048C35.547,29.464,35.231,29.441,34.918,29.441z"></path><path fill="#fae8e6" d="M67.5,42c-0.24,0-0.474,0.025-0.7,0.071c-0.896-2.331-2.268-4.411-3.985-6.127 c-5.23-3.553-19.389-2.743-24.072,0.458c-1.51,1.624-2.726,3.542-3.543,5.669C34.974,42.025,34.74,42,34.5,42 c-1.933,0-3.5,1.567-3.5,3.5c0,1.769,1.452,3.213,3.022,3.452C34.257,58.406,41.759,66,51,66s16.743-7.594,16.978-17.048 C69.682,48.717,71,47.269,71,45.5C71,43.567,69.433,42,67.5,42z"></path><path fill="#1f212b" d="M51,67c-9.582,0-17.328-7.524-17.944-17.266C31.289,49.102,30,47.38,30,45.5 c0-2.5,2.084-4.539,4.557-4.5c0.839-1.94,1.999-3.713,3.454-5.279c0.05-0.055,0.107-0.103,0.168-0.145 c4.978-3.401,19.615-4.252,25.198-0.46c0.053,0.035,0.102,0.076,0.146,0.12c1.675,1.675,2.991,3.611,3.921,5.764 c0.019,0,0.038,0,0.057,0c2.481,0,4.5,2.019,4.5,4.5c0,1.939-1.267,3.638-3.057,4.247C68.322,59.483,60.579,67,51,67z M34.5,43 c-1.378,0-2.5,1.122-2.5,2.5c0,1.317,1.127,2.304,2.172,2.463c0.479,0.073,0.837,0.479,0.849,0.964C35.246,57.94,42.265,65,51,65 c8.736,0,15.755-7.06,15.978-16.073c0.013-0.49,0.378-0.899,0.863-0.966C69.072,47.792,70,46.733,70,45.5 c0-1.378-1.121-2.5-2.5-2.5c-0.168,0-0.337,0.017-0.502,0.05c-0.472,0.097-0.957-0.165-1.132-0.621 c-0.824-2.147-2.065-4.067-3.689-5.71c-4.857-3.195-18.338-2.471-22.779,0.447c-1.419,1.548-2.517,3.317-3.264,5.263 c-0.175,0.456-0.651,0.718-1.132,0.621C34.836,43.017,34.668,43,34.5,43z"></path><ellipse cx="50.5" cy="57.983" fill="#1f212b" rx="3.5" ry="2.957"></ellipse><path fill="#fefdef" d="M54.76,52.5c-1.551-1.159-2.871-1.068-3.686-0.372c-0.815-0.696-2.135-0.786-3.686,0.372 c-4.766,4.247-8.809-0.083-9.389-2c0,8,9.389,10,12.791,6.336c0.107-0.112,0.192-0.23,0.283-0.346 c0.091,0.116,0.176,0.234,0.283,0.346C54.76,60.5,64.149,58.5,64.149,50.5C63.569,52.417,59.527,56.747,54.76,52.5z"></path><path fill="#1f212b" d="M46.186,59.107c-1.107,0-2.26-0.21-3.368-0.646c-3.33-1.308-5.317-4.284-5.317-7.961 c0-0.248,0.182-0.458,0.427-0.495c0.248-0.036,0.48,0.112,0.552,0.35c0.262,0.865,1.588,2.716,3.606,3.285 c1.646,0.465,3.322-0.043,4.971-1.513c1.461-1.092,2.923-1.303,4.018-0.618c1.097-0.685,2.555-0.479,3.984,0.591 c0.012,0.008,0.023,0.018,0.034,0.027c1.648,1.469,3.32,1.979,4.971,1.513c2.019-0.568,3.345-2.419,3.606-3.285 c0.072-0.237,0.313-0.379,0.552-0.35c0.245,0.036,0.427,0.247,0.427,0.495c0,3.678-1.988,6.654-5.317,7.962 c-3.036,1.193-6.409,0.698-8.257-1.197C49.904,58.468,48.114,59.107,46.186,59.107z M38.763,52.664 c0.805,3.1,3.253,4.409,4.42,4.867c2.666,1.048,5.712,0.612,7.242-1.035c0.076-0.08,0.136-0.16,0.197-0.239 c0.095-0.124,0.283-0.22,0.425-0.231c0.154,0,0.326,0.036,0.42,0.156c0.117,0.152,0.179,0.233,0.253,0.311 c1.531,1.65,4.576,2.086,7.244,1.038c1.167-0.458,3.615-1.767,4.421-4.867c-0.751,0.822-1.791,1.583-3.051,1.938 c-1.374,0.387-3.507,0.401-5.892-1.714c-1.188-0.881-2.295-1.019-3.045-0.38c-0.187,0.16-0.463,0.159-0.649,0 c-0.751-0.643-1.867-0.499-3.062,0.392c-2.358,2.104-4.5,2.09-5.875,1.702C40.554,54.248,39.513,53.486,38.763,52.664z"></path><path fill="#1f212b" d="M54.459,61.545c0,0-0.304,0.5-1.033,1.063c-0.373,0.241-0.816,0.56-1.377,0.732 c-0.548,0.202-1.187,0.274-1.812,0.249c-1.272-0.057-2.38-0.655-3.082-1.167c-0.712-0.523-1.083-0.993-1.083-0.993 s0.587,0.129,1.392,0.363c0.807,0.234,1.845,0.503,2.84,0.555c0.998,0.07,2.011-0.119,2.8-0.358 c0.368-0.142,0.734-0.209,0.966-0.321C54.312,61.58,54.459,61.545,54.459,61.545z"></path><path fill="#1f212b" d="M55.259,39.59c0,0,0.356-0.426,1.146-0.813c0.392-0.152,0.873-0.368,1.437-0.394 c0.558-0.053,1.179,0.029,1.751,0.255c1.174,0.449,1.931,1.477,2.244,2.254c0.183,0.383,0.236,0.745,0.282,0.982 c0.037,0.244,0.04,0.384,0.04,0.384s-0.376-0.433-0.909-0.98c-0.53-0.558-1.287-1.157-2.12-1.482 c-0.826-0.341-1.78-0.399-2.543-0.344c-0.365,0.053-0.71,0.04-0.946,0.101C55.401,39.587,55.259,39.59,55.259,39.59z"></path><path fill="#1f212b" d="M45.777,39.553c-0.236-0.061-0.581-0.049-0.946-0.101c-0.764-0.055-1.718,0.003-2.543,0.344 c-0.833,0.325-1.59,0.924-2.12,1.482c-0.534,0.548-0.909,0.98-0.909,0.98s0.003-0.14,0.04-0.384c0.046-0.237,0.099-0.6,0.282-0.982 c0.313-0.777,1.07-1.805,2.244-2.254c0.572-0.226,1.193-0.308,1.751-0.255c0.564,0.026,1.045,0.243,1.437,0.394 c0.79,0.387,1.146,0.813,1.146,0.813S46.016,39.587,45.777,39.553z"></path><path fill="#fae8e6" d="M48,50c0,3,5,3,5,0"></path><path fill="#1f212b" d="M50.5,52.75c-0.768,0-1.489-0.239-2.031-0.672C47.835,51.571,47.5,50.853,47.5,50 c0-0.276,0.224-0.5,0.5-0.5s0.5,0.224,0.5,0.5c0,1.209,1.004,1.75,2,1.75c0.995,0,2-0.541,2-1.75c0-0.276,0.224-0.5,0.5-0.5 s0.5,0.224,0.5,0.5C53.5,51.805,51.991,52.75,50.5,52.75z"></path><ellipse cx="44" cy="44.5" fill="#1f212b" rx="2" ry="2.5"></ellipse><circle cx="43" cy="44" r="1" fill="#fff"></circle><g><ellipse cx="57" cy="44.5" fill="#1f212b" rx="2" ry="2.5"></ellipse></g><g><circle cx="56" cy="44" r="1" fill="#fff"></circle></g><g><path fill="#1f212b" d="M30.617,85.819c-0.276,0-0.5-0.224-0.5-0.5c0-2.856-0.167-5.742-0.496-8.576 c-0.032-0.274,0.165-0.522,0.439-0.554c0.278-0.034,0.523,0.165,0.554,0.439c0.334,2.872,0.503,5.796,0.503,8.691 C31.117,85.596,30.894,85.819,30.617,85.819z"></path></g><g><path fill="#1f212b" d="M29.767,74.592c-0.243,0-0.456-0.177-0.494-0.424c-0.39-2.526-0.775-4.028-0.779-4.043 c-0.069-0.268,0.091-0.541,0.358-0.609c0.27-0.072,0.541,0.091,0.609,0.358c0.016,0.063,0.401,1.561,0.8,4.142 c0.042,0.273-0.145,0.528-0.418,0.57C29.817,74.59,29.792,74.592,29.767,74.592z"></path></g><g><path fill="#1f212b" d="M70.388,82.434c-0.007,0-0.014,0-0.021,0c-0.275-0.012-0.49-0.245-0.479-0.521 c0.083-1.917,0.236-3.853,0.456-5.751c0.032-0.275,0.285-0.473,0.555-0.439c0.274,0.032,0.471,0.28,0.439,0.554 c-0.218,1.875-0.369,3.785-0.45,5.679C70.876,82.224,70.654,82.434,70.388,82.434z"></path></g><g><path fill="#1f212b" d="M71.211,73.984c-0.025,0-0.052-0.002-0.077-0.006c-0.273-0.042-0.46-0.298-0.418-0.571 c0.421-2.719,0.826-4.296,0.843-4.362c0.069-0.267,0.341-0.431,0.609-0.358c0.268,0.069,0.428,0.342,0.359,0.609 c-0.004,0.016-0.411,1.6-0.823,4.265C71.666,73.807,71.453,73.984,71.211,73.984z"></path></g><g><path fill="#1f212b" d="M63.558,28.595c-0.098,0-0.196-0.028-0.282-0.087c-2.246-1.538-7.063-2.532-12.275-2.532 c-0.276,0-0.5-0.224-0.5-0.5s0.224-0.5,0.5-0.5c5.482,0,10.402,1.037,12.84,2.707c0.229,0.156,0.286,0.467,0.13,0.695 C63.873,28.519,63.717,28.595,63.558,28.595z"></path></g><g><path fill="#1f212b" d="M44.867,26.447c-0.241,0-0.453-0.174-0.493-0.419c-0.044-0.272,0.141-0.529,0.413-0.574 c1.245-0.203,2.572-0.344,3.946-0.418c0.267-0.013,0.511,0.196,0.526,0.473c0.015,0.276-0.197,0.511-0.473,0.526 c-1.338,0.072-2.629,0.209-3.838,0.407C44.92,26.445,44.894,26.447,44.867,26.447z"></path></g><g><path fill="#1f212b" d="M38.37,28.645c-0.157,0-0.312-0.074-0.409-0.211c-0.16-0.226-0.106-0.538,0.12-0.697 c0.987-0.698,2.462-1.312,4.264-1.776c0.269-0.068,0.541,0.092,0.609,0.359c0.069,0.268-0.092,0.54-0.359,0.609 c-1.686,0.434-3.047,0.996-3.937,1.624C38.57,28.615,38.47,28.645,38.37,28.645z"></path></g>
</svg>